<svg width="70" height="70" viewBox="0 0 70 70" fill="none" xmlns="http://www.w3.org/2000/svg">
<g clip-path="url(#clip0_129_5349)">
<path fill-rule="evenodd" clip-rule="evenodd" d="M25.2257 17.6224C26.0001 17.5415 26.7857 17.5 27.5806 17.5C38.2133 17.5 47.1758 24.9151 49.921 35.0303C50.1407 35.0161 50.3618 35.0068 50.584 35.0026C50.4937 35.001 50.4031 35.0002 50.3124 35.0002L50.2391 35.0004L50.239 35H53.5937H53.7254V34.9989C57.8931 34.9286 61.2499 31.5282 61.2499 27.3438C61.2499 23.1153 57.8221 19.6875 53.5937 19.6875C52.1739 19.6875 50.8445 20.0739 49.7047 20.7474C49.7013 19.5251 49.5157 18.3458 49.1736 17.235C47.4691 12.297 42.7802 8.75 37.263 8.75C31.6025 8.75 26.814 12.4835 25.2257 17.6224ZM59.4489 37.8566C63.1884 40.6347 65.625 45.1785 65.625 50.3125C65.625 58.7693 59.0135 65.6249 50.8578 65.6249C50.6753 65.6249 50.4935 65.6215 50.3125 65.6147V65.625H27.9281V65.6224C27.8125 65.6241 27.6966 65.625 27.5806 65.625C14.7645 65.625 4.375 54.8519 4.375 41.5625C4.375 30.8313 11.1495 21.7409 20.5059 18.6387C21.8026 10.5526 28.8114 4.375 37.263 4.375C44.5142 4.375 50.7034 8.92246 53.1341 15.3211C53.2866 15.3154 53.4398 15.3125 53.5937 15.3125C60.2384 15.3125 65.6249 20.6991 65.6249 27.3438C65.6249 31.8629 63.1333 35.8001 59.4489 37.8566ZM50.3125 61.25H27.9281H27.6763V61.2497L27.5806 61.25C17.3289 61.25 8.75 52.5865 8.75 41.5625C8.75 30.5385 17.3289 21.875 27.5806 21.875C36.2772 21.875 43.77 28.1095 45.8431 36.7306L45.8497 36.7279C46.1425 37.9241 46.3292 39.1643 46.3987 40.437C47.7617 39.7538 49.2782 39.375 50.8578 39.375C56.4491 39.375 61.25 44.121 61.25 50.3125C61.25 56.4606 56.5161 61.1834 50.9752 61.2492V61.25H50.3125Z" fill="white"/>
</g>
<defs>
<clipPath id="clip0_129_5349">
<rect width="70" height="70" fill="white"/>
</clipPath>
</defs>
</svg>
